<svg width="18" height="18" viewBox="0 0 18 18" fill="none" xmlns="http://www.w3.org/2000/svg">
<path d="M9.00098 2.30005C10.7777 2.3001 12.4819 3.0057 13.7383 4.26196C14.9948 5.51846 15.7012 7.22329 15.7012 9.00024C15.7011 10.7771 14.9947 12.4811 13.7383 13.7375C12.4818 14.994 10.7779 15.7004 9.00098 15.7004C7.22403 15.7004 5.51919 14.994 4.2627 13.7375C3.00643 12.4811 2.30083 10.777 2.30078 9.00024C2.30078 7.22329 3.0062 5.51846 4.2627 4.26196C5.51919 3.00547 7.22403 2.30005 9.00098 2.30005ZM9.8291 4.10962C9.14877 3.92732 8.42711 3.97393 7.77637 4.24341C7.12561 4.51294 6.58173 4.98988 6.22949 5.59985C6.13536 5.75574 6.0729 5.92861 6.04492 6.10864C6.01621 6.29384 6.02459 6.48354 6.07031 6.66528C6.11604 6.84696 6.19766 7.01772 6.31055 7.16724C6.42341 7.31671 6.56538 7.44168 6.72754 7.5354C6.8897 7.62908 7.06905 7.68999 7.25488 7.71313C7.44086 7.73624 7.63027 7.72135 7.81055 7.67017C7.99061 7.61901 8.15873 7.53249 8.30469 7.41528C8.44692 7.301 8.56423 7.15893 8.65234 6.99927L8.65332 7.00024C8.6884 6.93948 8.73905 6.88886 8.7998 6.85376C8.83019 6.83624 8.86289 6.82271 8.89648 6.81372L9 6.80005H9.00098C9.1069 6.8001 9.20825 6.84239 9.2832 6.91724C9.35822 6.99225 9.40039 7.09435 9.40039 7.20044C9.40029 7.30639 9.35813 7.40774 9.2832 7.48267C9.20824 7.55757 9.10695 7.5998 9.00098 7.59985C8.62967 7.59985 8.27329 7.74746 8.01074 8.01001C7.74819 8.27256 7.60059 8.62894 7.60059 9.00024V9.89966C7.60059 10.2709 7.74825 10.6274 8.01074 10.8899C8.1852 11.0644 8.40166 11.1859 8.63574 11.2493C8.40159 11.3126 8.18527 11.4352 8.01074 11.6096C7.74824 11.8721 7.60064 12.2286 7.60059 12.5999C7.60059 12.9712 7.74819 13.3275 8.01074 13.5901C8.27329 13.8526 8.62967 14.0002 9.00098 14.0002C9.37221 14.0002 9.72871 13.8526 9.99121 13.5901C10.2536 13.3276 10.4004 12.9711 10.4004 12.5999C10.4003 12.2286 10.2537 11.8721 9.99121 11.6096C9.81651 11.4349 9.59968 11.3125 9.36523 11.2493C9.59953 11.186 9.81661 11.0645 9.99121 10.8899C10.21 10.671 10.3466 10.3867 10.3867 10.0833C10.8752 9.84821 11.2992 9.4939 11.6143 9.0481C11.9484 8.57521 12.147 8.02176 12.1914 7.44751L12.2012 7.19946C12.201 6.49526 11.9678 5.81088 11.5391 5.2522C11.1103 4.69348 10.5094 4.29194 9.8291 4.10962Z" stroke="#D4AF37"/>
</svg>
