<svg width="24" height="24" viewBox="0 0 24 24" fill="none" xmlns="http://www.w3.org/2000/svg">
<path d="M10 11.627L5.07501 17.422C4.91894 17.6059 4.72641 17.7554 4.50959 17.861C4.29278 17.9667 4.05639 18.0262 3.8154 18.0358C3.5744 18.0454 3.33404 18.0048 3.10952 17.9167C2.88499 17.8286 2.68119 17.6949 2.51101 17.524C2.34015 17.3532 2.20652 17.1488 2.11855 16.9237C2.03057 16.6987 1.99014 16.4579 1.99982 16.2165C2.00949 15.975 2.06906 15.7382 2.17477 15.5209C2.28047 15.3037 2.43003 15.1106 2.61401 14.954L8.39501 10.019" stroke="#666666" stroke-width="1.5" stroke-linejoin="round"/>
<path d="M18 10.067L13.048 15.03M9.952 2.00101L5 6.96501M20 11.659L22 10.019M20 14.939L22 16.032M11.002 21.999H21M12.227 21.999C12.778 21.011 13.19 19.122 15.142 19.016C15.722 18.984 16.312 18.984 16.892 19.016C18.843 19.122 19.257 21.011 19.809 21.999M9.333 2.62201L5.62 6.34401C5.62 6.34401 7.477 8.82601 9.334 10.687C11.192 12.548 13.668 14.41 13.668 14.41L17.382 10.687C17.382 10.687 15.525 8.20601 13.668 6.34401C11.811 4.48401 9.333 2.62201 9.333 2.62201Z" stroke="#666666" stroke-width="1.5" stroke-linecap="round" stroke-linejoin="round"/>
</svg>
