<svg width="18" height="18" viewBox="0 0 18 18" fill="none" xmlns="http://www.w3.org/2000/svg">
<g clip-path="url(#clip0_1_8773)">
<path d="M2.11049 11.6L1.16049 15.7C1.12772 15.8498 1.12884 16.0051 1.16378 16.1545C1.19872 16.3039 1.26658 16.4436 1.36242 16.5634C1.45826 16.6832 1.57966 16.7801 1.71773 16.847C1.85581 16.9138 2.00708 16.949 2.16049 16.95C2.23195 16.9577 2.30403 16.9577 2.37549 16.95L6.50049 16L14.4205 8.10995L10.0005 3.69995L2.11049 11.6Z" fill="#A3A2A2"/>
<path d="M16.9094 4.15998L13.9594 1.20999C13.7654 1.01702 13.503 0.908691 13.2294 0.908691C12.9558 0.908691 12.6933 1.01702 12.4994 1.20999L10.8594 2.84998L15.2744 7.26499L16.9144 5.62499C17.0104 5.52852 17.0864 5.41409 17.1381 5.28822C17.1898 5.16235 17.2161 5.02752 17.2157 4.89145C17.2152 4.75538 17.1879 4.62073 17.1354 4.49522C17.0828 4.36971 17.006 4.25579 16.9094 4.15998Z" fill="#A3A2A2"/>
</g>
<defs>
<clipPath id="clip0_1_8773">
<rect width="18" height="18" fill="white"/>
</clipPath>
</defs>
</svg>
