<svg width="14" height="15" viewBox="0 0 14 15" fill="none" xmlns="http://www.w3.org/2000/svg">
<path d="M0.565072 10.4564H2.86296L2.17736 13.8616C2.16229 13.9411 2.15476 14.0218 2.15486 14.1027C2.15486 14.4717 2.41071 14.6751 2.76493 14.6751C3.12654 14.6751 3.39011 14.4791 3.46564 14.1101L4.20364 10.4564H7.767L7.08171 13.8616C7.05921 13.9368 7.05182 14.0275 7.05182 14.1027C7.05182 14.4717 7.308 14.6751 7.66961 14.6751C8.03121 14.6751 8.29479 14.4791 8.37032 14.1101L9.10029 10.4564H11.7897C12.204 10.4564 12.4904 10.1552 12.4904 9.74829C12.4904 9.41689 12.2644 9.14561 11.9253 9.14561H9.37125L10.1706 5.16793H12.8073C13.222 5.16793 13.508 4.86675 13.508 4.45982C13.508 4.12843 13.2821 3.85714 12.943 3.85714H10.4342L11.052 0.82125C11.0594 0.775929 11.0745 0.677893 11.0745 0.580179C11.0745 0.210857 10.8109 0 10.4493 0C10.0276 0 9.83925 0.233357 9.76371 0.587571L9.10093 3.85714H5.53725L6.15504 0.82125C6.16243 0.775929 6.17754 0.677893 6.17754 0.580179C6.17754 0.210857 5.90625 0 5.55236 0C5.12293 0 4.92686 0.233357 4.85904 0.587571L4.19625 3.85714H1.72543C1.31079 3.85714 1.02471 4.17343 1.02471 4.58775C1.02471 4.92686 1.25068 5.16793 1.58979 5.16793H3.93268L3.13393 9.14561H0.700714C0.286072 9.14561 0 9.46189 0 9.87621C0 10.2153 0.225964 10.4564 0.565072 10.4564ZM4.46721 9.14561L5.27368 5.16793H8.83671L8.03057 9.14561H4.46721Z" fill="black"/>
</svg>
