<svg width="20" height="20" viewBox="0 0 20 20" fill="none" xmlns="http://www.w3.org/2000/svg">
<path fill-rule="evenodd" clip-rule="evenodd" d="M6.04102 8.33333C6.04102 7.28352 6.45805 6.2767 7.20038 5.53437C7.94272 4.79204 8.94953 4.375 9.99935 4.375C11.0492 4.375 12.056 4.79204 12.7983 5.53437C13.5406 6.2767 13.9577 7.28352 13.9577 8.33333C13.9577 9.38315 13.5406 10.39 12.7983 11.1323C12.056 11.8746 11.0492 12.2917 9.99935 12.2917C8.94953 12.2917 7.94272 11.8746 7.20038 11.1323C6.45805 10.39 6.04102 9.38315 6.04102 8.33333ZM9.99935 5.625C9.28105 5.625 8.59218 5.91034 8.08427 6.41825C7.57636 6.92616 7.29102 7.61504 7.29102 8.33333C7.29102 9.05163 7.57636 9.7405 8.08427 10.2484C8.59218 10.7563 9.28105 11.0417 9.99935 11.0417C10.7176 11.0417 11.4065 10.7563 11.9144 10.2484C12.4223 9.7405 12.7077 9.05163 12.7077 8.33333C12.7077 7.61504 12.4223 6.92616 11.9144 6.41825C11.4065 5.91034 10.7176 5.625 9.99935 5.625Z" fill="#666666"/>
<path fill-rule="evenodd" clip-rule="evenodd" d="M2.9364 7.38079C3.07922 5.65327 3.86625 4.04257 5.14132 2.86829C6.41639 1.69402 8.08632 1.04201 9.81974 1.04163H10.1797C11.9132 1.04201 13.5831 1.69402 14.8582 2.86829C16.1332 4.04257 16.9203 5.65327 17.0631 7.38079C17.2219 9.30523 16.6274 11.2162 15.4047 12.7108L11.4106 17.595C11.2396 17.804 11.0244 17.9724 10.7804 18.0881C10.5364 18.2037 10.2698 18.2637 9.99974 18.2637C9.72972 18.2637 9.46307 18.2037 9.21908 18.0881C8.97508 17.9724 8.75984 17.804 8.5889 17.595L4.59474 12.7108C3.3721 11.2162 2.77754 9.30523 2.9364 7.38079ZM9.81974 2.29163C8.40025 2.29223 7.03284 2.82633 5.98874 3.788C4.94465 4.74967 4.30014 6.06864 4.18307 7.48329C4.05081 9.08487 4.54557 10.6752 5.56307 11.9191L9.55724 16.8041C9.61093 16.8698 9.67856 16.9228 9.75524 16.9592C9.83191 16.9955 9.91571 17.0144 10.0006 17.0144C10.0854 17.0144 10.1692 16.9955 10.2459 16.9592C10.3226 16.9228 10.3902 16.8698 10.4439 16.8041L14.4381 11.9191C15.455 10.675 15.9491 9.08465 15.8164 7.48329C15.6993 6.0685 15.0547 4.74941 14.0104 3.78772C12.9662 2.82603 11.5985 2.29202 10.1789 2.29163H9.81974Z" fill="#666666"/>
</svg>
