<svg width="18" height="18" viewBox="0 0 18 18" fill="none" xmlns="http://www.w3.org/2000/svg">
<path d="M10.6504 2H12.5996C13.6943 2 14.5331 2.33998 15.0957 2.90332C15.658 3.46655 15.9956 4.30442 15.9922 5.39844V12.5996C15.9922 13.6942 15.6525 14.5331 15.0889 15.0967C14.5253 15.6602 13.6871 15.9999 12.5928 16H10.6504C9.55584 16 8.71695 15.6603 8.15332 15.0967C7.58969 14.5331 7.25 13.6942 7.25 12.5996V10.0625H11.4375C12.0211 10.0625 12.5 9.58364 12.5 9C12.5 8.41636 12.0211 7.9375 11.4375 7.9375H7.25V5.40039C7.25 4.30584 7.58969 3.46695 8.15332 2.90332C8.71695 2.33969 9.55584 2 10.6504 2Z" stroke="#D4AF37"/>
<path d="M4.5752 6.42688C4.59495 6.42691 4.60972 6.43406 4.61914 6.44348L4.625 6.44934L4.63184 6.4552C4.62911 6.45266 4.63032 6.45287 4.63281 6.45911C4.63559 6.46609 4.63768 6.47646 4.6377 6.48743C4.6377 6.49719 4.63613 6.50504 4.63379 6.51086C4.63164 6.5162 4.62749 6.523 4.61914 6.53137L3.06641 8.08411L3.41992 8.43762V8.93762H6.25V9.06262H2.21289L4.61914 11.4689C4.62848 11.4783 4.63574 11.4932 4.63574 11.5128C4.63567 11.5325 4.62853 11.5474 4.61914 11.5568C4.60971 11.5661 4.59488 11.5733 4.5752 11.5734C4.55554 11.5734 4.5407 11.5661 4.53125 11.5568L2.01855 9.04407C2.00913 9.03464 2.00198 9.01987 2.00195 9.00012C2.00195 8.98038 2.00916 8.96562 2.01855 8.95618L4.53125 6.44348C4.5407 6.43409 4.55545 6.42688 4.5752 6.42688Z" fill="#D4AF37" stroke="#D4AF37"/>
</svg>
