<svg width="18" height="18" viewBox="0 0 18 18" fill="none" xmlns="http://www.w3.org/2000/svg">
<path d="M9.00293 1.92688C9.24592 1.92688 9.46477 1.96168 9.60645 2.01379V2.01282L13.7295 3.55872V3.55774C14.0096 3.66523 14.2904 3.89839 14.5029 4.20715C14.7161 4.51692 14.8327 4.86254 14.8301 5.16321V11.2423C14.8301 11.4476 14.7594 11.7217 14.623 11.9943C14.5209 12.1985 14.3956 12.3742 14.2695 12.5021L14.1436 12.6134L10.0205 15.6945L10.0186 15.6954C9.75654 15.8925 9.38784 16.0059 8.99609 16.006C8.60415 16.006 8.23474 15.8927 7.97266 15.6954L7.97168 15.6945L3.84668 12.6124L3.84375 12.6105L3.7207 12.5021C3.5964 12.377 3.47149 12.2025 3.36914 11.9972C3.23283 11.7237 3.16211 11.448 3.16211 11.2423V5.16711C3.16221 4.86486 3.28032 4.51796 3.49512 4.20813C3.70944 3.89906 3.9924 3.66547 4.27637 3.55774L4.27734 3.55872L8.39941 2.01282L8.40039 2.01379C8.54198 1.96173 8.76017 1.92692 9.00293 1.92688ZM11.9707 6.13391C11.558 5.72119 10.8815 5.72127 10.4688 6.13391L7.99414 8.60657L7.53809 8.15149C7.12533 7.73875 6.44889 7.73875 6.03613 8.15149C5.62419 8.56343 5.62388 9.23753 6.03418 9.65051V9.65149L7.2334 10.8663L7.23633 10.8683C7.44754 11.0795 7.71935 11.1798 7.9873 11.1798C8.25519 11.1798 8.52712 11.0794 8.73828 10.8683L11.9629 7.64368L11.9619 7.6427C12.3834 7.229 12.3825 6.54573 11.9707 6.13391Z" stroke="#D4AF37"/>
</svg>
