<svg width="18" height="18" viewBox="0 0 18 18" fill="none" xmlns="http://www.w3.org/2000/svg">
<path fill-rule="evenodd" clip-rule="evenodd" d="M8.15625 2.53136C8.31159 2.53136 8.4375 2.65727 8.4375 2.81261V8.15636C8.4375 8.31168 8.31159 8.43761 8.15625 8.43761H2.8125C2.65716 8.43761 2.53125 8.31168 2.53125 8.15636V2.81261C2.53125 2.65727 2.65716 2.53136 2.8125 2.53136H8.15625ZM7.24219 3.72667H3.72656V7.24229H7.24219V3.72667ZM15.9141 5.26803C16.0239 5.37785 16.0239 5.55594 15.9141 5.66577L12.7321 8.84776C12.6222 8.95759 12.4442 8.95759 12.3343 8.84776L9.15235 5.66577C9.04252 5.55594 9.04252 5.37785 9.15235 5.26803L12.3343 2.08603C12.4442 1.97621 12.6222 1.97621 12.7321 2.08603L15.9141 5.26803ZM14.4225 5.46689L12.5332 3.57761L10.6439 5.4669L12.5332 7.3562L14.4225 5.46689ZM8.15625 9.56261C8.31159 9.56261 8.4375 9.68854 8.4375 9.84386V15.1876C8.4375 15.3429 8.31159 15.4689 8.15625 15.4689H2.8125C2.65716 15.4689 2.53125 15.3429 2.53125 15.1876V9.84386C2.53125 9.68854 2.65716 9.56261 2.8125 9.56261H8.15625ZM7.24219 10.7579H3.72656V14.2735H7.24219V10.7579ZM15.1875 9.56261C15.3428 9.56261 15.4688 9.68854 15.4688 9.84386V15.1876C15.4688 15.3429 15.3428 15.4689 15.1875 15.4689H9.84375C9.68841 15.4689 9.5625 15.3429 9.5625 15.1876V9.84386C9.5625 9.68854 9.68841 9.56261 9.84375 9.56261H15.1875ZM14.2734 10.7579H10.7578V14.2735H14.2734V10.7579Z" fill="#666666"/>
</svg>
