<svg width="12" height="11" viewBox="0 0 12 11" fill="none" xmlns="http://www.w3.org/2000/svg">
<path d="M5.31109 0.232534C5.45406 -0.0774145 5.89457 -0.0774145 6.03754 0.232534L7.41443 3.21762C7.47269 3.34394 7.59241 3.43092 7.73055 3.4473L10.995 3.83435C11.334 3.87454 11.4701 4.2935 11.2195 4.52524L8.806 6.75718C8.70386 6.85163 8.65814 6.99237 8.68525 7.12881L9.32591 10.3531C9.39244 10.6879 9.03605 10.9468 8.73821 10.7801L5.86969 9.17443C5.7483 9.10648 5.60033 9.10648 5.47894 9.17443L2.61043 10.7801C2.31258 10.9468 1.9562 10.6879 2.02272 10.3531L2.66338 7.12881C2.6905 6.99237 2.64477 6.85163 2.54263 6.75718L0.129132 4.52524C-0.121468 4.2935 0.0146584 3.87454 0.353616 3.83435L3.61808 3.4473C3.75623 3.43092 3.87594 3.34394 3.93421 3.21762L5.31109 0.232534Z" fill="#FFD875"/>
</svg>
