<svg width="20" height="20" viewBox="0 0 20 20" fill="none" xmlns="http://www.w3.org/2000/svg">
<path d="M5.83352 7.29165C5.40206 7.29162 4.97683 7.39467 4.59325 7.59223C4.20967 7.78979 3.87884 8.07613 3.62832 8.42742C3.37779 8.7787 3.21482 9.18475 3.15297 9.61176C3.09112 10.0388 3.13219 10.4744 3.27275 10.8823C3.41331 11.2902 3.6493 11.6587 3.96107 11.9569C4.27283 12.2552 4.65135 12.4747 5.06509 12.5971C5.47883 12.7195 5.91583 12.7412 6.33968 12.6606C6.76354 12.5799 7.16199 12.3991 7.50185 12.1333L7.55852 12.1783L11.5002 14.9383C11.3832 15.5906 11.5094 16.2632 11.8549 16.8287C12.2005 17.3942 12.7413 17.8133 13.3752 18.0068C14.009 18.2003 14.6918 18.1547 15.2942 17.8787C15.8967 17.6026 16.377 17.1152 16.6443 16.5088C16.9116 15.9023 16.9472 15.219 16.7445 14.588C16.5417 13.9571 16.1147 13.4224 15.5442 13.0851C14.9738 12.7479 14.2994 12.6315 13.6489 12.758C12.9984 12.8845 12.4168 13.2452 12.0144 13.7716L8.28185 11.1591C8.44852 10.8083 8.54185 10.415 8.54185 9.99998C8.54185 9.58498 8.44852 9.19165 8.28185 8.84082L12.0152 6.22748C12.4177 6.75396 12.9992 7.1146 13.6497 7.24112C14.3003 7.36764 14.9746 7.25126 15.5451 6.914C16.1155 6.57675 16.5426 6.04204 16.7453 5.4111C16.948 4.78017 16.9124 4.0968 16.6451 3.49037C16.3779 2.88394 15.8975 2.39655 15.2951 2.12047C14.6926 1.8444 14.0098 1.79879 13.376 1.99229C12.7422 2.18579 12.2013 2.60497 11.8558 3.17047C11.5102 3.73596 11.384 4.40852 11.501 5.06082L7.55852 7.82248L7.50185 7.86665C7.02584 7.49353 6.43834 7.29105 5.83352 7.29165Z" fill="#D4AF37"/>
</svg>
