<svg width="18" height="18" viewBox="0 0 18 18" fill="none" xmlns="http://www.w3.org/2000/svg">
<path d="M12.2627 2.69409C13.7044 2.21351 14.6382 2.42533 15.1084 2.89624C15.5789 3.36766 15.7898 4.30299 15.3135 5.7439L13.0557 12.5095C12.6876 13.6155 12.2718 14.406 11.8555 14.9099C11.4379 15.4153 11.0651 15.5818 10.7695 15.5818C10.474 15.5817 10.1011 15.4153 9.68359 14.9099C9.26728 14.406 8.85239 13.6154 8.48438 12.5095L7.81641 10.4998L7.73828 10.2625L7.5 10.1833L5.49023 9.51538C4.3843 9.14734 3.5938 8.73293 3.08984 8.31714C2.58443 7.90009 2.41809 7.52799 2.41797 7.23315C2.41797 6.93817 2.58421 6.56535 3.08984 6.14722C3.59396 5.73041 4.38507 5.31402 5.49121 4.94409L5.49023 4.94312L12.2627 2.69409ZM12.6982 5.1062C12.3112 4.71939 11.6922 4.69526 11.2764 5.03394L11.1963 5.1062L11.1953 5.10718L8.34668 7.97144C7.93392 8.3842 7.93392 9.06063 8.34668 9.47339C8.55788 9.68453 8.82974 9.78491 9.09766 9.78491C9.36551 9.78483 9.63751 9.68452 9.84863 9.47339L9.84961 9.47241L12.6992 6.60718L12.6982 6.6062C13.1099 6.19334 13.1106 5.51859 12.6982 5.1062Z" stroke="#D4AF37"/>
</svg>
