<svg width="60" height="60" viewBox="0 0 60 60" fill="none" xmlns="http://www.w3.org/2000/svg">
<g clip-path="url(#clip0_1_8827)">
<path d="M53.5909 11.8542C54.1017 12.6887 54.4113 13.6694 54.439 14.7412C54.5188 17.8313 52.1474 20.4875 49.0659 20.732C47.5445 20.8527 46.134 20.3901 45.0323 19.545C44.6291 19.2357 44.0801 19.1811 43.6212 19.3994C42.6802 19.8469 41.6512 20.0785 40.6093 20.0772C39.5679 20.0785 38.5394 19.8472 37.5989 19.4001C37.1392 19.1816 36.5893 19.2361 36.1854 19.5458C35.0404 20.4236 33.5625 20.8884 31.9729 20.7151C28.9942 20.3902 26.7777 17.8952 26.7777 14.8988C26.7777 11.1331 30.2401 8.45129 33.7625 9.155C34.2664 9.25566 34.7903 9.06406 35.1108 8.66234C36.3991 7.04809 38.3833 6.01367 40.6093 6.01367C42.8353 6.01367 44.8194 7.04809 46.1079 8.66234C46.4283 9.06383 46.9519 9.25578 47.4555 9.155C48.4275 8.96017 49.4333 9.01889 50.3761 9.32551" stroke="#D4AF37" stroke-width="2" stroke-miterlimit="10" stroke-linecap="round" stroke-linejoin="round"/>
<path d="M52.2616 19.4465C53.1122 20.9526 53.5908 22.647 53.5908 24.4393C53.5908 27.7611 51.9493 30.7486 49.3349 32.8189C47.03 34.6442 43.9687 35.7567 40.6094 35.7567C37.2501 35.7567 34.1889 34.6443 31.8838 32.8189C29.2694 30.7486 27.6279 27.7611 27.6279 24.4393C27.6279 22.6536 28.1029 20.9648 28.9478 19.4629" stroke="#D4AF37" stroke-width="2" stroke-miterlimit="10" stroke-linecap="round" stroke-linejoin="round"/>
<path d="M54.1946 16.562C55.6349 17.3908 56.9139 18.4358 57.6707 19.1926C58.6376 20.1596 59.1211 21.4269 59.1211 22.6944C59.1211 23.9619 58.6376 25.2293 57.6705 26.1963C56.4299 27.437 54.695 27.8803 53.0999 27.5294M27.0239 16.562C25.5837 17.3908 24.3047 18.4358 23.5479 19.1926C22.5809 20.1597 22.0973 21.4271 22.0973 22.6946C22.0973 23.9621 22.5809 25.2294 23.5479 26.1965C24.7886 27.4371 26.5234 27.8804 28.1186 27.5295" stroke="#D4AF37" stroke-width="2" stroke-miterlimit="10" stroke-linecap="round" stroke-linejoin="round"/>
<path d="M47.5458 34.0053C47.5677 38.9269 43.5871 42.9242 38.6705 42.9242C37.1539 42.9242 35.7266 42.5432 34.4781 41.8725C33.7797 41.4972 32.9258 41.5982 32.3442 42.1371C30.7614 43.6035 28.6439 44.5007 26.3159 44.5007C23.6566 44.5007 21.2713 43.3307 19.6444 41.4781C19.4393 41.2439 19.1784 41.0653 18.8858 40.9589C18.5933 40.8525 18.2786 40.8218 17.971 40.8696C17.5339 40.9365 17.0863 40.9715 16.6303 40.9715C11.7272 40.9715 7.75245 36.9967 7.75245 32.0936C7.75245 30.3236 8.27065 28.6749 9.16339 27.2902C9.49585 26.7745 9.55151 26.1214 9.30483 25.5595C8.81236 24.4374 8.55874 23.2251 8.5601 21.9997C8.5601 16.6811 13.1819 12.6212 18.3606 13.1687C18.6193 13.196 18.8808 13.167 19.1271 13.0835C19.3735 13 19.5988 12.8641 19.7875 12.685C21.6491 10.9142 24.1816 9.84218 26.9653 9.89257C27.709 9.90668 28.4489 10.0034 29.1712 10.1811" stroke="#D4AF37" stroke-width="2" stroke-miterlimit="10" stroke-linecap="round" stroke-linejoin="round"/>
<path d="M46.8924 37.401C49.1479 39.7383 50.9785 42.6036 51.8252 45.1434C52.3393 46.6857 51.5057 48.3527 49.9634 48.8668C48.4214 49.3812 46.7541 48.5472 46.2399 47.005C45.7116 45.4202 44.4583 43.4487 42.9651 41.8178M37.5425 42.8529C39.0154 44.748 40.1762 46.8097 40.7887 48.6474C41.3027 50.1897 40.4693 51.8568 38.9268 52.3708C37.3848 52.8853 35.7174 52.0512 35.2034 50.509C34.726 49.0764 33.639 47.2911 32.2959 45.7329C31.593 44.9177 30.8531 44.2045 30.1345 43.6361M16.0488 50.0486C15.4944 50.3893 14.9152 50.688 14.3163 50.9424C12.8199 51.5784 11.0918 50.8811 10.4558 49.3847C9.81981 47.8885 10.5172 46.1602 12.0133 45.5242C13.4234 44.9248 14.5604 43.9363 15.3924 42.5862C15.6956 42.0943 15.9597 41.5509 16.1852 40.9601M21.6419 43.1702C21.2935 44.0644 20.8813 44.9014 20.4044 45.6752C20.0424 46.2632 19.6364 46.823 19.1898 47.3497M12.1412 39.7518C9.7263 41.4163 6.97637 42.2566 3.80423 42.2275C2.17848 42.2174 0.868914 40.8912 0.879109 39.2655C0.889304 37.6461 2.2052 36.3404 3.82239 36.3404C5.48844 36.3278 6.92399 36.0432 8.31899 35.216M33.2912 25.1732V26.5795M47.9275 25.1732V26.5795M38.6799 26.5376C39.149 27.076 39.8391 27.4167 40.6093 27.4167C41.3795 27.4167 42.0696 27.076 42.5387 26.5376" stroke="#D4AF37" stroke-width="2" stroke-miterlimit="10" stroke-linecap="round" stroke-linejoin="round"/>
</g>
<defs>
<clipPath id="clip0_1_8827">
<rect width="60" height="60" fill="white" transform="matrix(-1 0 0 1 60 0)"/>
</clipPath>
</defs>
</svg>
