<svg width="20" height="20" viewBox="0 0 20 20" fill="none" xmlns="http://www.w3.org/2000/svg">
<path d="M4.16699 3.33337H15.8337C16.0698 3.33337 16.2678 3.41337 16.4278 3.57337C16.5878 3.73337 16.6675 3.93115 16.667 4.16671C16.6664 4.40226 16.5864 4.60032 16.427 4.76087C16.2675 4.92143 16.0698 5.00115 15.8337 5.00004H4.16699C3.93088 5.00004 3.7331 4.92004 3.57366 4.76004C3.41421 4.60004 3.33421 4.40226 3.33366 4.16671C3.3331 3.93115 3.4131 3.73337 3.57366 3.57337C3.73421 3.41337 3.93199 3.33337 4.16699 3.33337ZM4.16699 16.6667C3.93088 16.6667 3.7331 16.5867 3.57366 16.4267C3.41421 16.2667 3.33421 16.0689 3.33366 15.8334V11.6667H3.18783C2.92394 11.6667 2.70866 11.5659 2.54199 11.3642C2.37533 11.1625 2.31977 10.93 2.37533 10.6667L3.20866 6.50004C3.25033 6.3056 3.34755 6.14587 3.50033 6.02087C3.6531 5.89587 3.82671 5.83337 4.02116 5.83337H15.9795C16.1739 5.83337 16.3475 5.89587 16.5003 6.02087C16.6531 6.14587 16.7503 6.3056 16.792 6.50004L17.6253 10.6667C17.6809 10.9306 17.6253 11.1631 17.4587 11.3642C17.292 11.5653 17.0767 11.6662 16.8128 11.6667H16.667V15.8334C16.667 16.0695 16.587 16.2675 16.427 16.4275C16.267 16.5875 16.0692 16.6673 15.8337 16.6667C15.5981 16.6662 15.4003 16.5862 15.2403 16.4267C15.0803 16.2673 15.0003 16.0695 15.0003 15.8334V11.6667H11.667V15.8334C11.667 16.0695 11.587 16.2675 11.427 16.4275C11.267 16.5875 11.0692 16.6673 10.8337 16.6667H4.16699ZM5.00033 15H10.0003V11.6667H5.00033V15ZM4.20866 10H15.792L15.292 7.50004H4.70866L4.20866 10Z" fill="#666666"/>
</svg>
