<svg width="18" height="18" viewBox="0 0 18 18" fill="none" xmlns="http://www.w3.org/2000/svg">
<path fill-rule="evenodd" clip-rule="evenodd" d="M6.16725 4.88699C6.45992 4.56428 6.65261 4.16353 6.72191 3.73342C6.79122 3.3033 6.73416 2.86232 6.55767 2.464C6.38118 2.06569 6.09285 1.72718 5.72768 1.48957C5.36252 1.25197 4.93623 1.12549 4.50056 1.12549C4.0649 1.12549 3.63861 1.25197 3.27344 1.48957C2.90827 1.72718 2.61994 2.06569 2.44345 2.464C2.26697 2.86232 2.20991 3.3033 2.27921 3.73342C2.34852 4.16353 2.5412 4.56428 2.83388 4.88699C2.74388 4.93424 2.65763 4.98524 2.57512 5.03999C2.061 5.38312 1.73137 5.832 1.5255 6.24712C1.28011 6.74715 1.14361 7.29356 1.125 7.85025V10.125C1.125 10.4234 1.24353 10.7095 1.4545 10.9205C1.66548 11.1315 1.95163 11.25 2.25 11.25H5.0625C5.25943 10.8504 5.51924 10.485 5.832 10.1677L5.81738 10.125H2.25V7.87499C2.25 7.87499 2.25 5.625 4.5 5.625C5.63287 5.625 6.19537 6.19537 6.47438 6.76124C6.7275 6.47549 7.029 6.2325 7.3665 6.04575C7.08268 5.55518 6.66727 5.1538 6.16725 4.88699ZM4.5 4.49999C4.79837 4.49999 5.08452 4.38147 5.2955 4.17049C5.50647 3.95951 5.625 3.67336 5.625 3.37499C5.625 3.07663 5.50647 2.79048 5.2955 2.5795C5.08452 2.36852 4.79837 2.24999 4.5 2.24999C4.20163 2.24999 3.91548 2.36852 3.7045 2.5795C3.49353 2.79048 3.375 3.07663 3.375 3.37499C3.375 3.67336 3.49353 3.95951 3.7045 4.17049C3.91548 4.38147 4.20163 4.49999 4.5 4.49999ZM15.75 11.25H12.9375C12.7406 10.8504 12.4808 10.485 12.168 10.1677L12.1826 10.125H15.75V7.87499C15.75 7.87499 15.75 5.625 13.5 5.625C12.3671 5.625 11.8046 6.19537 11.5256 6.76124C11.2711 6.47373 10.9694 6.23176 10.6335 6.04575C10.9173 5.55518 11.3327 5.1538 11.8327 4.88699C11.5401 4.56428 11.3474 4.16353 11.2781 3.73342C11.2088 3.3033 11.2658 2.86232 11.4423 2.464C11.6188 2.06569 11.9071 1.72718 12.2723 1.48957C12.6375 1.25197 13.0638 1.12549 13.4994 1.12549C13.9351 1.12549 14.3614 1.25197 14.7266 1.48957C15.0917 1.72718 15.3801 2.06569 15.5565 2.464C15.733 2.86232 15.7901 3.3033 15.7208 3.73342C15.6515 4.16353 15.4588 4.56428 15.1661 4.88699C15.2561 4.93424 15.3424 4.98524 15.4249 5.03999C15.939 5.38312 16.2686 5.832 16.4745 6.24712C16.7163 6.73489 16.8527 7.26805 16.875 7.812V10.125C16.875 10.4234 16.7565 10.7095 16.5455 10.9205C16.3345 11.1315 16.0484 11.25 15.75 11.25ZM13.5 4.49999C13.7984 4.49999 14.0845 4.38147 14.2955 4.17049C14.5065 3.95951 14.625 3.67336 14.625 3.37499C14.625 3.07663 14.5065 2.79048 14.2955 2.5795C14.0845 2.36852 13.7984 2.24999 13.5 2.24999C13.2016 2.24999 12.9155 2.36852 12.7045 2.5795C12.4935 2.79048 12.375 3.07663 12.375 3.37499C12.375 3.67336 12.4935 3.95951 12.7045 4.17049C12.9155 4.38147 13.2016 4.49999 13.5 4.49999Z" fill="#666666"/>
<path fill-rule="evenodd" clip-rule="evenodd" d="M11.25 9.00001C11.25 9.58164 11.0295 10.1126 10.6673 10.512C11.2341 10.8189 11.6914 11.2947 11.9756 11.8733C12.2219 12.3721 12.3581 12.9181 12.375 13.4741V15.75C12.375 16.0484 12.2565 16.3345 12.0455 16.5455C11.8345 16.7565 11.5484 16.875 11.25 16.875H6.75C6.45163 16.875 6.16548 16.7565 5.95451 16.5455C5.74353 16.3345 5.625 16.0484 5.625 15.75V13.4753C5.62554 13.4246 5.62779 13.3739 5.63175 13.3234C5.66855 12.8188 5.80224 12.3261 6.0255 11.8721C6.30945 11.2937 6.76631 10.818 7.33275 10.5109C7.08742 10.2402 6.91171 9.91379 6.82079 9.55995C6.72987 9.2061 6.72648 8.83544 6.81091 8.48C6.89535 8.12455 7.06507 7.79501 7.3054 7.51986C7.54573 7.2447 7.84946 7.03221 8.19032 6.90074C8.53118 6.76927 8.89893 6.72278 9.26178 6.76528C9.62464 6.80779 9.97169 6.93801 10.2729 7.1447C10.5742 7.35139 10.8206 7.62833 10.9908 7.95158C11.161 8.27483 11.25 8.63467 11.25 9.00001ZM6.75 13.5V15.75H11.25V13.5C11.25 13.5 11.25 11.25 9 11.25C6.75 11.25 6.75 13.5 6.75 13.5ZM10.125 9.00001C10.125 9.29838 10.0065 9.58453 9.7955 9.79551C9.58452 10.0065 9.29837 10.125 9 10.125C8.70163 10.125 8.41548 10.0065 8.2045 9.79551C7.99353 9.58453 7.875 9.29838 7.875 9.00001C7.875 8.70164 7.99353 8.4155 8.2045 8.20452C8.41548 7.99354 8.70163 7.87501 9 7.87501C9.29837 7.87501 9.58452 7.99354 9.7955 8.20452C10.0065 8.4155 10.125 8.70164 10.125 9.00001Z" fill="#666666"/>
</svg>
